PathFileType	4	(X/Y/Z)	../Python\walking\Walking19\task.trc
DataRate	CameraRate	NumFrames	NumMarkers	Units	OrigDataRate	OrigDataStartFrame	OrigNumFrames
200.000000	200.000000	4	30	mm	200.000000	71	571
Frame#	Time	RBAK			CLAV			STRN			RASI			LASI			PE01			RTH1			RTH2			RTH3			RTB2			RTB3			RD5M			RTOE			LTH3			LTB2			LTB3			LHEE			LTOE			LD5M			RHEE			LTH1			LTH2			C7			RTB1			LPSI			PE03			PE02			RPSI			T10			LTB1			
		X1	Y1	Z1	X2	Y2	Z2	X3	Y3	Z3	X4	Y4	Z4	X5	Y5	Z5	X6	Y6	Z6	X7	Y7	Z7	X8	Y8	Z8	X9	Y9	Z9	X10	Y10	Z10	X11	Y11	Z11	X12	Y12	Z12	X13	Y13	Z13	X14	Y14	Z14	X15	Y15	Z15	X16	Y16	Z16	X17	Y17	Z17	X18	Y18	Z18	X19	Y19	Z19	X20	Y20	Z20	X21	Y21	Z21	X22	Y22	Z22	X23	Y23	Z23	X24	Y24	Z24	X25	Y25	Z25	X26	Y26	Z26	X27	Y27	Z27	X28	Y28	Z28	X29	Y29	Z29	X30	Y30	Z30	

72	0.355	-1232.392211914063	1241.571411132813	281.1364135742189	-1063.667846679688	1249.9365234375	175.2465972900391	-1001.950378417969	1063.414916992188	174.6022338867188	-1025.614379882813	874.2385253906255	298.4218750000001	-1039.593139648438	851.6333007812505	72.94659423828128	-1228.079223632813	942.4763183593755	205.0040283203126	-1037.700805664063	580.2073974609377	329.5196533203126	-1005.179382324219	511.116882324219	306.0327148437501	-989.7633666992192	570.0321044921877	315.9949645996095	-1013.963134765625	248.4876403808595	288.8914794921876	-984.4551391601567	213.0044860839845	269.1225891113282	-922.7451782226567	15.01080036163331	263.8233642578126	-888.5403442382817	29.02212142944337	207.692840576172	-1063.024169921875	563.8638916015627	34.97212219238283	-1305.9375	294.8882141113282	79.76936340332034	-1258.39794921875	283.2142333984376	74.79797363281253	-1450.178466796875	210.8884735107423	156.5365142822266	-1361.23583984375	55.17384338378909	135.0646972656251	-1395.732177734375	74.6350021362305	98.11605834960943	-1076.180541992188	26.1185817718506	205.6288604736329	-1110.035888671875	584.605895996094	35.29455184936525	-1133.045776367188	529.5047607421877	49.86059570312503	-1189.367553710938	1340.354736328125	178.4798583984376	-971.7590332031255	290.5804138183595	277.5121154785157	-1232.901245117188	903.1878051757817	166.2083740234376	-1243.18994140625	879.472534179688	186.3916625976563	-1239.238647460938	884.821899414063	236.6769104003907	-1225.218505859375	910.9453735351567	255.5476531982423	-1212.69921875	1042.417724609375	189.5566406250001	-1244.426025390625	341.819305419922	60.72587585449222	
73	0.36	-1225.132568359375	1243.093383789063	281.5845336914064	-1056.9873046875	1251.17919921875	174.6826171875001	-995.4379272460942	1064.555297851563	173.9713745117188	-1019.285034179688	874.8762207031255	298.5272827148439	-1033.550415039063	852.9330444335942	72.94338226318362	-1221.688354492188	943.8707885742192	205.5408782958986	-1033.999755859375	580.6107177734377	329.3467712402345	-1002.017395019532	511.2881774902346	305.8457641601564	-986.1860351562505	570.0319824218752	315.748504638672	-1012.783264160157	248.5005035400392	288.8122863769532	-983.4934692382817	212.8506927490236	268.9898376464845	-922.7639770507817	15.07180309295655	263.7764282226564	-888.5437011718755	28.98715209960939	207.6143341064454	-1052.702270507813	565.953063964844	34.08980560302736	-1291.722412109375	296.4027709960939	79.16433715820315	-1244.163452148438	284.6566162109376	74.10029602050784	-1436.435668945313	211.104217529297	156.2772521972657	-1344.190063476563	57.26264190673831	131.6057891845704	-1379.4609375	77.09402465820315	95.2592697143555	-1076.197265625	26.18170547485353	205.6358032226564	-1099.879638671875	585.8933715820315	34.81465530395509	-1122.007446289063	530.3850708007815	49.40435409545901	-1182.532836914063	1341.69287109375	178.4232177734376	-970.4464721679692	290.3841857910157	277.3274841308595	-1226.701293945313	904.5895996093755	166.7904968261719	-1236.989013671875	880.9738159179692	186.8137664794922	-1232.963134765625	886.199829101563	237.1033477783204	-1218.82568359375	912.3895874023442	256.078582763672	-1206.060302734375	1043.8203125	190.2128295898438	-1230.266235351563	343.4031066894532	60.1573295593262	
74	0.365	-1217.906127929688	1244.592407226563	282.0271301269532	-1050.341796875	1252.382568359375	174.1076202392579	-988.975952148438	1065.652954101563	173.326889038086	-1012.994934082032	875.4806518554692	298.620330810547	-1027.545532226563	854.2414550781255	72.90517425537112	-1215.308227539063	945.2402343750005	206.0766754150392	-1030.180786132813	581.0484008789065	329.1629028320314	-998.7520141601567	511.4908142089846	305.6320190429689	-982.5017700195317	570.0764770507815	315.4270935058595	-1011.595275878907	248.5186004638673	288.7438964843751	-982.5346679687505	212.7103271484376	268.844940185547	-922.7817382812505	15.12762069702149	263.7395935058595	-888.5429687500005	28.95387077331544	207.5469512939454	-1042.316162109375	568.1585693359377	33.27705383300783	-1277.411499023438	297.8013000488282	78.62326812744143	-1229.821899414063	286.052703857422	73.406364440918	-1422.436767578125	210.8747863769532	155.9664764404297	-1326.653076171875	59.17967605590823	128.2155761718751	-1362.705444335938	79.23934173583987	92.42954254150393	-1076.211791992188	26.2512664794922	205.6515502929689	-1089.675903320313	587.2780761718752	34.35860061645509	-1110.893798828125	531.3790283203127	48.97596740722659	-1175.724487304688	1343.004516601563	178.3589935302735	-969.1444702148442	290.2005920410157	277.1216735839845	-1220.533447265625	905.9765625000005	167.3641052246094	-1230.8212890625	882.4612426757817	187.2181396484376	-1226.721313476563	887.5483398437505	237.5133666992189	-1212.470336914063	913.7883300781255	256.5892639160157	-1199.458740234375	1045.197998046875	190.8673553466797	-1216.097412109375	344.9893188476564	59.68350982666018	
75	0.37	-1210.71435546875	1246.062744140625	282.4621887207032	-1043.731079101563	1253.543090820313	173.5236816406251	-982.562377929688	1066.706420898438	172.6726989746094	-1006.741516113282	876.055786132813	298.7030029296876	-1021.570922851563	855.5546264648442	72.8384704589844	-1208.937377929688	946.5800781250005	206.6063385009767	-1026.262084960938	581.5103759765627	328.9659729003907	-995.4149780273442	511.7060546875002	305.3964233398439	-978.7275390625005	570.1453857421877	315.0405273437501	-1010.409118652344	248.5406341552736	288.6826782226564	-981.5847778320317	212.5818481445314	268.6912841796876	-922.7970581054692	15.17927646636964	263.7103271484376	-888.5377807617192	28.92330932617189	207.4886474609376	-1031.856323242188	570.4650878906252	32.54996490478517	-1263.0166015625	299.0589294433595	78.13095855712893	-1215.385131835938	287.3836364746095	72.71459960937503	-1408.182250976563	210.2081146240236	155.5922088623047	-1308.69384765625	60.90136337280276	124.9268417358399	-1345.519165039063	81.05249023437503	89.65498352050784	-1076.224975585938	26.32615661621095	205.6724395751954	-1079.419189453125	588.7501220703127	33.92846298217775	-1099.701904296875	532.4752197265627	48.57125091552737	-1168.943237304688	1344.284912109375	178.2870330810547	-967.8566894531255	290.0276489257814	276.8997192382814	-1214.391967773438	907.343383789063	167.923324584961	-1224.680908203125	883.9285278320317	187.5999298095704	-1220.509643554688	888.8623046875005	237.9021759033204	-1206.148803710938	915.1376342773442	257.0759277343751	-1192.892578125	1046.546142578125	191.5161285400391	-1201.928100585938	346.5480041503907	59.28792953491214	
